<?xml version="1.0" encoding="UTF-8" standalone="no"?>
<!-- Created with Inkscape (http://www.inkscape.org/) -->
<svg
   xmlns:svg="http://www.w3.org/2000/svg"
   xmlns="http://www.w3.org/2000/svg"
   version="1.0"
   width="404"
   height="412"
   id="svg3207">
  <defs
     id="defs3210" />
  <path
     d="M 152,409.06053 C 138.07998,406.23884 127.55185,393.3788 120.02232,370 C 115.63267,356.37039 112,326.01613 112,302.96632 L 112,291.22308 L 98.75,290.52877 C 81.370365,289.61808 65.114627,287.50354 52.4032,284.50002 C -10.01129,269.7524 -15.542658,230.36174 39.775824,194.5764 C 43.665874,192.05994 56.005623,185.38829 67.197489,179.75051 L 87.546336,169.5 L 82.266712,161.5 C 79.362918,157.1 74.047648,148.27129 70.455,141.88064 L 63.922912,130.26128 L 59.444222,129.64741 C 48.102275,128.09282 40,119.73374 40,109.58689 C 40,104.17321 41.440987,100.51093 45.155133,96.485091 L 47.936615,93.470182 L 46.046932,87.398617 C 42.907199,77.310636 41.663801,66.154775 42.838313,58.61065 C 44.638182,47.049724 48.893175,40.77929 58.38353,35.702202 C 61.926423,33.806848 64.032708,33.505105 73.5,33.536636 C 83.496174,33.569929 85.472006,33.906596 95.151315,37.225858 C 113.44939,43.500697 133.41038,54.437516 156.25182,70.70341 L 165.00363,76.935773 L 167.96884,71.061719 C 172.53744,62.011378 181.23396,47.846326 186.20553,41.357472 C 188.67383,38.135863 191.88832,33.594909 193.34883,31.266464 C 197.49308,24.65942 208.44951,13.587876 215.80846,8.5708608 C 233.17874,-3.271446 248.57142,-2.7489459 261.17744,10.110897 C 277.36792,26.627371 285.87911,63.31719 284.83041,112.07354 L 284.42332,131 L 286.96166,130.99331 C 288.35775,130.98963 297.50872,131.50349 307.29714,132.13523 L 325.09429,133.28385 L 327.79714,130.70087 C 331.42813,127.23094 338.7065,124.04392 343,124.04392 C 346.76637,124.04392 354.27254,127.05243 357.37375,129.80499 C 358.4241,130.73724 360.30258,133.68013 361.54816,136.34473 C 363.64044,140.82062 364.39097,141.44077 371.40657,144.49057 C 390.35979,152.72987 399.70371,162.69837 401.5495,176.64837 C 402.76352,185.82369 397.6413,197.16636 387.19769,208.42907 C 376.60904,219.84819 352.51819,236.072 333.75,244.42301 C 328.9375,246.56436 325,248.65852 325,249.0767 C 325,249.49489 327.74886,254.4862 331.10859,260.16852 C 350.74515,293.37995 360.25268,319.27709 360.41683,340 C 360.49195,349.48368 360.23795,351.03357 357.79265,356.01249 C 354.16886,363.39097 349.61095,367.58133 342.44503,370.12247 C 334.13687,373.06865 322.09932,372.32882 308.79792,368.0545 C 291.92633,362.63292 265.73973,348.20525 244.76852,332.77711 L 235.59844,326.03084 L 228.48454,339.76542 C 224.5719,347.31944 220.318,355.22953 219.03143,357.3434 L 216.69223,361.18681 L 218.84611,365.62016 C 223.43081,375.05684 220.12903,384.76352 210.74348,389.44054 C 205.63073,391.98833 201.76154,392.45052 197,391.08224 C 194.9214,390.48493 193.57291,391.18686 189,395.24643 C 175.94256,406.83808 163.65954,411.424 152,409.06053 z M 169.42762,393.57921 C 172.42884,392.11085 177.14029,388.88122 179.89749,386.40226 C 184.39119,382.36203 184.81162,381.63471 183.9553,379.38242 C 179.88213,368.66918 189.03897,356 200.8553,356 C 204.73847,356 204.89032,355.85998 209.26005,348.25 C 216.57437,335.51194 219.9222,329.23296 222.46402,323.48545 L 224.8734,318.0374 L 211.6867,306.8717 C 204.43402,300.73057 196.19179,293.47864 193.37065,290.75632 L 188.24131,285.80663 L 173.87065,287.39734 C 160.28568,288.90108 133.7454,290.96855 127.75,290.99011 L 125,291 L 125,306.36057 C 125,346.97981 133.09237,379.70502 146.0084,391.31764 C 148.79343,393.82163 152.06838,396.08582 153.28605,396.34917 C 157.67129,397.2976 164.07283,396.19907 169.42762,393.57921 z M 341.67742,356.41007 C 346.30116,352.98649 347.50241,349.48452 347.47794,339.5 C 347.44319,325.32471 342.55841,309.85765 330.58164,286 C 326.45876,277.78725 314.12037,256.15017 312.40895,254.13165 C 312.23718,253.92906 306.5624,255.79125 299.79832,258.26984 C 288.12279,262.54817 269.30302,268.59258 260.40962,270.92046 C 256.76706,271.87391 256.18209,272.45692 255.06655,276.24556 C 254.37758,278.5855 250.9129,288.08734 247.36726,297.36075 C 241.28467,313.26945 241.02172,314.3005 242.71033,315.62051 C 255.02045,325.24351 273.04509,336.88812 290.43721,346.45392 C 296.48394,349.77966 308.4431,354.67762 316.5,357.12811 C 324.90138,359.68337 337.75157,359.31689 341.67742,356.41007 z M 233.20207,298.23768 C 237.87668,286.58143 241.27452,276.94118 240.85587,276.52254 C 240.63405,276.30071 232.24657,277.74375 222.21704,279.7293 L 203.98154,283.33938 L 209.67441,288.41969 C 218.96225,296.70816 229.03128,305.00089 229.79124,304.98768 C 230.18106,304.9809 231.71593,301.9434 233.20207,298.23768 z M 113,276.45681 C 113,272.11745 116.38094,244.56837 118.62641,230.6108 L 121.18264,214.7216 L 119.10742,212.1108 C 117.96604,210.67486 112.19618,203.0875 106.2855,195.25 C 100.37482,187.4125 95.177203,181 94.735248,181 C 92.950191,181 68.886532,192.5314 60,197.64526 C 54.775,200.65205 49.15,203.84162 47.5,204.73318 C 41.646655,207.896 29.175744,217.98231 24.158675,223.61133 C 16.86587,231.79367 14.696864,236.89839 15.194208,244.70904 C 15.558739,250.43388 15.950949,251.37064 19.547417,255.10626 C 24.206715,259.94583 28.477745,262.76014 36,265.94735 C 51.667005,272.58554 78.583185,277.08065 107.25,277.8464 C 111.83233,277.96881 113,277.68662 113,276.45681 z M 157,275.8805 C 166.075,275.26121 173.85432,274.5478 174.28738,274.29514 C 174.72044,274.04248 169.99544,268.56417 163.78738,262.12111 C 157.57932,255.67805 148.01001,245.37908 142.52225,239.23451 C 136.33078,232.302 132.30426,228.52502 131.91141,229.28128 C 130.81449,231.3929 126.15408,268.41212 126.0258,276.03269 C 125.99625,277.78808 129.2833,277.77193 157,275.8805 z M 220,266.90654 C 248.85311,261.171 246.08131,262.52661 248.90388,252.77049 C 254.32864,234.02002 257.1929,222.6279 260.50617,206.62427 C 262.42778,197.34262 264,189.60869 264,189.43777 C 264,188.71741 248.93423,171.59883 238.34251,160.28428 C 228.26685,149.52101 226.58573,148.12221 224.20359,148.51976 C 222.71662,148.76792 214.3,150.1258 205.5,151.53727 C 185.50557,154.74427 157.42824,160.52022 149.34729,163.08879 C 146.46179,164.00595 146.01898,164.74389 144.12275,171.79544 C 142.98325,176.03295 140.69236,185.575 139.03188,193 C 137.3714,200.425 135.78328,207.48494 135.50273,208.68875 C 135.12515,210.30891 136.47323,212.64696 140.69196,217.68875 C 148.86683,227.45852 165.5257,245.55315 179.44099,259.7774 L 191.45172,272.05481 L 195.97586,271.41882 C 198.46414,271.06903 209.275,269.0385 220,266.90654 z M 192.46494,240.11414 C 185.38045,237.56219 183.32275,236.33869 178.2475,231.66049 C 158.28527,213.25994 159.56492,183.72674 180.77575,173.31095 C 185.72885,170.87868 187.59502,170.5167 194.62834,170.624 C 201.64386,170.73102 203.61395,171.18363 209.01854,173.93005 C 218.13554,178.56297 221.47374,181.43943 226.48979,188.98465 C 242.66669,213.31818 230.28473,242.11823 203.71249,241.96392 C 200.29562,241.94408 195.23422,241.11168 192.46494,240.11414 z M 210.99436,224.75 C 222.34117,218.97147 222.93357,202.00024 212.16438,191.23105 C 202.88838,181.95505 189.97864,181.56561 182.2837,190.32966 C 173.54566,200.28174 178.89548,218.31707 192.45913,224.63313 C 198.93366,227.64806 205.22577,227.68773 210.99436,224.75 z M 271.09035,254.42035 C 279.29796,252.05909 303.85741,243.47593 304.63706,242.69627 C 305.4148,241.91853 276.38754,203 275.02972,203 C 274.61391,203 273.51162,206.9375 272.58019,211.75 C 271.01623,219.83063 267.58349,233.6125 262.99074,250.25 C 261.96591,253.9625 261.35157,257 261.62554,257 C 261.8995,257 266.15867,255.83916 271.09035,254.42035 z M 341,226.31358 C 354.85066,218.84317 365.98309,211.04911 374.57425,202.80753 C 387.25299,190.64468 391.09975,181.53526 387.24095,172.81181 C 384.42732,166.45112 375.26941,159.40692 364.70536,155.47758 L 359.91073,153.69419 L 356.70536,156.78576 C 352.6766,160.6715 348.78464,162.17286 342.82352,162.14081 C 334.945,162.09844 326.45991,156.30922 324.29626,149.5 C 323.38764,146.64048 323.0189,146.4707 316.4215,145.87421 C 312.61468,145.53003 303.56988,145.19253 296.32196,145.12421 L 283.14391,145 L 282.46811,150.75 C 282.09642,153.9125 280.93904,162.77259 279.89615,170.4391 C 278.85327,178.1056 278,184.70129 278,185.09618 C 278,185.49108 281.43713,190.01848 285.63807,195.15709 C 294.42554,205.90594 304.35247,219.12963 311.92964,230.18014 L 317.19579,237.86028 L 324.8479,234.37919 C 329.05655,232.46459 336.325,228.83506 341,226.31358 z M 130.63038,169.29704 C 130.02441,168.69107 110.02576,174.69026 108.79506,175.84719 C 108.40735,176.21167 111.78235,181.38744 116.29506,187.34891 L 124.5,198.18794 L 127.85542,184.03273 C 129.70091,176.24736 130.94964,169.6163 130.63038,169.29704 z M 268.53018,159.42449 C 269.33858,152.90783 270,146.95693 270,146.20028 C 270,145.0694 267.81964,144.94912 257.75,145.52447 C 251.0125,145.90943 245.20137,146.51141 244.83637,146.8622 C 244.47138,147.21299 249.16232,153.00906 255.26069,159.74235 C 261.35906,166.47564 266.50877,171.82456 266.7045,171.62883 C 266.90023,171.43311 267.72178,165.94115 268.53018,159.42449 z M 114.5,160.21404 C 121.1,158.06422 128.59059,155.7022 131.14576,154.9651 L 135.79152,153.62493 L 140.51363,139.06246 C 143.11079,131.05311 148.14748,117.075 151.70628,108 C 155.26509,98.925 158.39818,90.775023 158.66871,89.888939 C 159.31075,87.786082 146.37969,78.34526 126.99138,66.76167 C 102.87978,52.35614 89.599139,47.087639 75.5,46.33476 C 65.078368,45.778257 60.901353,47.339076 57.554348,53.040484 C 54.926393,57.517036 54.9959,72.553707 57.690524,82.5 C 59.584327,89.490336 59.592408,89.500744 63.543473,90.039025 C 79.427591,92.203028 87.029417,110.40145 76.762347,121.6844 L 74.774621,123.86881 L 80.081523,133.1844 C 89.274055,149.32073 99.962806,165.18603 101.272,164.6374 C 101.9474,164.35437 107.9,162.36386 114.5,160.21404 z M 171.5,144.7374 C 180.3,142.78924 193.76813,140.16179 201.42918,138.89862 L 215.35836,136.60196 L 206.92918,128.6563 C 193.8191,116.29824 170.62397,96.971204 169.86806,97.775598 C 168.80335,98.908596 155.38573,133.86217 153.45696,140.52733 C 152.50636,143.8123 151.49097,147.12904 151.20056,147.89788 C 150.8111,148.92892 151.30596,149.16241 153.08627,148.78763 C 154.41382,148.50817 162.7,146.68556 171.5,144.7374 z M 248,133.00741 C 254.325,132.45709 262.03936,132.0053 265.14301,132.00342 C 269.364,132.00086 270.93898,131.60139 271.39301,130.41821 C 271.72686,129.54823 271.99518,119.31073 271.98929,107.66821 C 271.96938,68.294883 267.33875,42.196468 257.49852,25.997591 C 249.27135,12.454137 239.46385,9.6576685 226.24757,17.086837 C 212.67055,24.71879 192.78419,50.074418 179.91408,76.163243 L 175.64034,84.826486 L 179.05976,87.663243 C 193.15448,99.356261 212.17394,116.14168 220.98829,124.66679 C 229.64241,133.03694 231.94179,134.76063 234,134.42078 C 235.375,134.19374 241.675,133.55772 248,133.00741 z"
     id="path3218"
     style="fill:#040404" />
</svg>
